<?xml version="1.0" encoding="UTF-8"?>
<!DOCTYPE svg PUBLIC "-//W3C//DTD SVG 1.1//EN" "http://www.w3.org/Graphics/SVG/1.1/DTD/svg11.dtd">
<!-- Creator: CorelDRAW X7 -->
<svg xmlns="http://www.w3.org/2000/svg" xml:space="preserve" width="4.55333in" height="1.45666in" version="1.1" style="shape-rendering:geometricPrecision; text-rendering:geometricPrecision; image-rendering:optimizeQuality; fill-rule:evenodd; clip-rule:evenodd"
viewBox="0 0 4553 1457"
 xmlns:xlink="http://www.w3.org/1999/xlink">
 <defs>
  <style type="text/css">
   <![CDATA[
    .fil0 {fill:#E41F26}
    .fil2 {fill:#E41F26;fill-rule:nonzero}
    .fil1 {fill:white;fill-rule:nonzero}
   ]]>
  </style>
     <clipPath id="id0">
      <path d="M2109 351l148 0 -6 166 -148 0 6 -166z"/>
     </clipPath>
 </defs>
 <g id="Layer_x0020_1">
  <metadata id="CorelCorpID_0Corel-Layer"/>
  <g id="_1010379072">
   <path class="fil0" d="M2164 307c-108,18 -135,146 -55,213 39,32 100,24 155,25 24,0 37,4 39,-22 1,-30 1,-91 -3,-118 -9,-59 -66,-110 -136,-98z"/>
   <g>
    <g style="clip-path:url(#id0)">
     <image x="2103" y="351" width="154" height="166" xlink:href="logoa_Images\logoa_ImgID1.png"/>
    </g>
   </g>
   <path class="fil1" d="M2183 351c14,0 27,3 38,9 11,7 20,16 26,27 7,12 10,24 10,38l0 60c0,4 -1,7 -4,10 -2,3 -6,4 -10,4 -3,0 -7,-1 -9,-4 -3,-3 -4,-6 -4,-10l0 -10c-7,8 -14,14 -23,18 -9,5 -19,7 -29,7 -13,0 -25,-3 -35,-10 -11,-6 -19,-15 -25,-27 -6,-11 -9,-24 -9,-38 0,-14 3,-26 10,-38 6,-11 15,-20 27,-27 11,-6 23,-9 37,-9zm0 125c9,0 17,-3 25,-7 7,-4 13,-10 17,-18 4,-8 6,-16 6,-26 0,-9 -2,-18 -6,-25 -4,-8 -10,-14 -17,-19 -8,-4 -16,-6 -25,-6 -9,0 -17,2 -24,6 -7,5 -13,11 -17,19 -4,7 -7,16 -7,25 0,10 3,18 7,26 4,8 10,14 17,18 7,4 15,7 24,7z"/>
   <path class="fil1" d="M2421 414c9,0 16,3 21,9 6,5 8,13 8,24l0 43c0,2 0,4 -2,6 -1,1 -3,2 -5,2 -3,0 -4,-1 -6,-2 -1,-2 -2,-4 -2,-6l0 -43c0,-6 -2,-11 -5,-14 -3,-3 -7,-5 -12,-5 -5,0 -10,2 -13,5 -3,4 -5,9 -5,14l0 43c0,2 -1,4 -2,6 -2,1 -4,2 -6,2 -2,0 -4,-1 -5,-2 -2,-2 -3,-4 -3,-6l0 -43c0,-6 -1,-11 -4,-14 -3,-3 -7,-5 -13,-5 -5,0 -9,2 -13,5 -3,4 -5,9 -5,14l0 43c0,2 0,4 -2,6 -1,1 -3,2 -5,2 -3,0 -5,-1 -6,-2 -1,-2 -2,-4 -2,-6l0 -67c0,-3 1,-5 2,-6 1,-1 3,-2 6,-2 2,0 4,1 5,2 1,1 2,3 2,5 3,-2 6,-4 10,-6 3,-1 7,-2 11,-2 6,0 10,1 14,3 4,2 8,5 10,9 3,-4 7,-7 12,-9 4,-2 9,-3 15,-3z"/>
   <path id="1" class="fil1" d="M2485 498c-2,0 -4,-1 -5,-2 -2,-2 -2,-4 -2,-6l0 -67c0,-3 0,-5 2,-6 1,-1 3,-2 5,-2 3,0 4,1 6,2 1,1 2,3 2,6l0 67c0,2 -1,4 -2,6 -2,1 -3,2 -6,2zm0 -97c-2,0 -5,-1 -7,-3 -2,-2 -3,-4 -3,-7 0,-2 1,-5 3,-7 2,-2 5,-3 7,-3 3,0 5,1 7,3 2,2 3,5 3,7 0,3 -1,5 -3,7 -2,2 -4,3 -7,3z"/>
   <path id="2" class="fil1" d="M2557 483c2,0 3,0 5,2 1,1 2,3 2,5 0,2 -1,4 -3,6 -2,1 -4,2 -6,2l-3 0c-5,0 -10,-2 -14,-4 -4,-3 -7,-6 -9,-11 -3,-4 -4,-9 -4,-15l0 -37 -7 0c-2,0 -4,-1 -5,-2 -1,-1 -2,-3 -2,-4 0,-3 1,-4 2,-5 1,-2 3,-2 5,-2l7 0 0 -22c0,-2 1,-4 2,-5 2,-2 4,-3 6,-3 2,0 4,1 5,3 2,1 2,3 2,5l0 22 13 0c2,0 4,0 5,2 2,1 2,2 2,5 0,1 0,3 -2,4 -1,1 -3,2 -5,2l-13 0 0 37c0,4 2,8 4,10 2,3 5,5 8,5l5 0z"/>
   <path id="3" class="fil2" d="M2690 416c4,1 5,3 5,5 0,1 0,3 -1,4l-46 104c-1,4 -3,5 -6,5 -1,0 -2,0 -4,-1 -3,-1 -4,-3 -4,-6 0,-1 0,-2 1,-3l15 -34 -34 -65c-1,-1 -1,-2 -1,-3 0,-2 0,-3 1,-4 1,-1 2,-2 3,-3 1,0 2,0 3,0 3,0 5,1 7,4l27 55 25 -55c1,-3 3,-4 6,-4 1,0 2,0 3,1z"/>
   <path id="4" class="fil2" d="M2743 498c-8,0 -15,-1 -21,-5 -7,-4 -12,-9 -15,-15 -4,-6 -6,-14 -6,-22 0,-8 2,-15 6,-21 3,-7 8,-12 15,-15 6,-4 13,-6 21,-6 8,0 15,2 22,6 6,3 11,8 15,15 3,6 5,13 5,21 0,8 -2,16 -5,22 -4,6 -9,11 -15,15 -6,4 -14,5 -22,5zm0 -13c5,0 10,-2 14,-4 4,-2 7,-6 10,-10 2,-4 3,-9 3,-15 0,-5 -1,-10 -3,-14 -3,-5 -6,-8 -10,-11 -4,-2 -9,-3 -14,-3 -5,0 -9,1 -14,3 -4,3 -7,6 -9,11 -3,4 -4,9 -4,14 0,6 1,11 4,15 2,4 5,8 9,10 5,2 9,4 14,4z"/>
   <path id="5" class="fil2" d="M2846 414c8,0 15,2 21,6 6,3 11,8 15,15 4,6 5,13 5,21l0 33c0,8 -1,15 -5,22 -4,7 -8,12 -15,15 -6,4 -14,6 -22,6 -7,0 -14,-1 -20,-4 -6,-3 -12,-7 -16,-13 -1,-1 -1,-2 -1,-4 0,-2 1,-4 3,-5 1,-1 3,-2 4,-2 3,0 5,1 6,4 3,3 6,6 11,8 4,2 8,3 14,3 5,0 9,-2 13,-4 4,-2 7,-6 10,-11 2,-4 3,-10 3,-16l0 -7c-3,5 -7,10 -12,13 -5,3 -11,4 -17,4 -8,0 -15,-1 -20,-5 -6,-4 -11,-9 -14,-15 -4,-6 -5,-14 -5,-22 0,-8 2,-15 5,-21 4,-7 9,-12 15,-15 6,-4 14,-6 22,-6zm0 71c5,0 9,-2 14,-4 4,-2 7,-6 9,-10 2,-4 3,-9 3,-15 0,-5 -1,-10 -3,-14 -2,-5 -5,-8 -9,-11 -5,-2 -9,-3 -14,-3 -6,0 -10,1 -14,3 -4,3 -8,6 -10,11 -2,4 -3,9 -3,14 0,6 1,11 3,15 2,4 6,8 10,10 4,2 8,4 14,4z"/>
   <path id="6" class="fil2" d="M2920 498c-3,0 -4,-1 -6,-2 -1,-2 -2,-4 -2,-6l0 -67c0,-3 1,-5 2,-6 2,-1 3,-2 6,-2 2,0 4,1 5,2 2,1 2,3 2,6l0 67c0,2 0,4 -2,6 -1,1 -3,2 -5,2zm0 -97c-3,0 -5,-1 -7,-3 -2,-2 -3,-4 -3,-7 0,-2 1,-5 3,-7 2,-2 4,-3 7,-3 2,0 5,1 7,3 2,2 3,5 3,7 0,3 -1,5 -3,7 -2,2 -5,3 -7,3z"/>
  </g>
 </g>
</svg>
