<?xml version="1.0" standalone="no"?>
<!DOCTYPE svg PUBLIC "-//W3C//DTD SVG 20010904//EN"
 "http://www.w3.org/TR/2001/REC-SVG-20010904/DTD/svg10.dtd">
<svg version="1.0" xmlns="http://www.w3.org/2000/svg"
 width="1460.000000pt" height="1460.000000pt" viewBox="0 0 1460.000000 1460.000000"
 preserveAspectRatio="xMidYMid meet">
<metadata>
Created by potrace 1.11, written by Peter Selinger 2001-2013
</metadata>
<g transform="translate(0.000000,1460.000000) scale(0.100000,-0.100000)"
fill="#000000" stroke="none">
<path d="M7099 14576 c-2 -2 -62 -7 -134 -10 -71 -4 -148 -8 -170 -10 -22 -2
-74 -7 -115 -11 -41 -3 -86 -8 -100 -10 -14 -2 -50 -7 -80 -10 -56 -6 -74 -9
-145 -20 -22 -3 -53 -8 -70 -10 -118 -15 -474 -83 -630 -120 -11 -3 -29 -7
-40 -9 -55 -12 -352 -91 -454 -121 -188 -55 -572 -187 -656 -225 -11 -5 -49
-21 -85 -36 -528 -214 -1029 -491 -1510 -833 -73 -53 -330 -249 -340 -261 -3
-3 -32 -28 -65 -55 -33 -28 -62 -52 -65 -55 -3 -3 -25 -23 -50 -44 -323 -281
-716 -702 -951 -1021 -24 -33 -46 -62 -49 -65 -9 -9 -80 -110 -178 -254 -323
-477 -617 -1069 -811 -1631 -49 -142 -147 -467 -171 -565 -6 -25 -12 -52 -14
-60 -4 -15 -25 -101 -31 -130 -2 -8 -8 -35 -14 -60 -5 -25 -12 -56 -14 -70 -3
-14 -17 -86 -31 -160 -14 -74 -28 -157 -32 -185 -3 -27 -8 -52 -9 -55 -2 -3
-6 -37 -10 -75 -4 -39 -9 -72 -10 -75 -2 -3 -6 -39 -10 -80 -4 -41 -8 -82 -10
-90 -2 -8 -6 -55 -10 -105 -4 -49 -9 -108 -11 -130 -22 -223 -21 -819 1 -1065
2 -25 7 -76 10 -115 11 -126 26 -263 41 -360 7 -53 24 -159 29 -190 24 -139
22 -134 81 -415 72 -345 260 -928 406 -1260 11 -25 26 -58 33 -75 241 -555
608 -1169 972 -1625 24 -30 54 -68 66 -83 23 -30 45 -56 80 -97 12 -14 44 -52
72 -85 50 -60 71 -84 175 -199 80 -90 442 -449 540 -537 381 -342 698 -573
1075 -784 113 -63 475 -245 488 -245 4 0 30 -11 59 -24 387 -176 1059 -381
1558 -475 30 -6 64 -12 75 -14 11 -3 36 -7 55 -11 19 -3 46 -8 60 -11 41 -8
322 -54 365 -60 22 -3 51 -8 65 -10 34 -7 86 -14 145 -20 28 -3 64 -7 80 -10
30 -5 80 -10 170 -20 28 -3 66 -7 85 -10 19 -2 67 -7 105 -10 39 -3 81 -8 95
-10 14 -2 63 -7 110 -10 47 -3 105 -8 130 -10 69 -7 240 -18 470 -30 69 -4
157 -8 195 -10 402 -21 1874 -26 2955 -11 695 10 1298 11 1635 1 532 -16 990
-11 1110 10 304 54 451 124 602 284 29 31 53 59 53 63 0 4 6 13 14 21 57 57
165 332 191 487 3 19 8 42 10 50 2 8 7 35 10 60 3 25 8 52 10 60 2 8 6 42 10
75 3 33 7 78 10 100 18 187 48 1042 61 1750 6 329 6 1853 0 2160 -13 674 -31
1223 -51 1600 -3 55 -8 134 -10 175 -12 226 -16 290 -30 480 -3 36 -7 100 -10
142 -3 42 -7 91 -9 110 -3 18 -8 67 -11 108 -3 41 -8 93 -10 115 -3 22 -7 65
-10 95 -7 87 -26 243 -40 345 -2 17 -7 53 -10 80 -4 28 -8 57 -10 65 -2 8 -7
38 -10 65 -9 72 -79 423 -110 545 -14 58 -27 112 -30 121 -31 135 -192 635
-235 734 -5 11 -19 45 -30 75 -131 333 -301 682 -498 1020 -84 144 -292 465
-370 570 -23 30 -62 84 -89 120 -322 437 -777 914 -1208 1265 -60 49 -121 100
-135 112 -14 13 -28 23 -32 23 -3 0 -13 6 -20 13 -41 41 -427 310 -593 413
-299 186 -729 403 -1056 535 -298 119 -707 251 -924 298 -22 5 -98 22 -170 39
-71 17 -143 32 -160 35 -16 3 -97 17 -180 31 -150 25 -191 31 -275 41 -25 3
-63 7 -85 10 -55 7 -115 13 -215 20 -47 4 -101 9 -120 11 -43 6 -736 14 -741
10z"/>
</g>
</svg>
